<?xml version="1.0" standalone="no"?><svg xmlns="http://www.w3.org/2000/svg" viewBox="0 0 1440 320"><path fill="rgb(97, 0, 148)" fill-opacity="1" d="M0,96L30,101.3C60,107,120,117,180,128C240,139,300,149,360,128C420,107,480,53,540,53.3C600,53,660,107,720,106.7C780,107,840,53,900,26.7C960,0,1020,0,1080,37.3C1140,75,1200,149,1260,181.3C1320,213,1380,203,1410,197.3L1440,192L1440,0L1410,0C1380,0,1320,0,1260,0C1200,0,1140,0,1080,0C1020,0,960,0,900,0C840,0,780,0,720,0C660,0,600,0,540,0C480,0,420,0,360,0C300,0,240,0,180,0C120,0,60,0,30,0L0,0Z"></path></svg>